<svg width="137" height="40" viewBox="0 0 137 40" fill="none" xmlns="http://www.w3.org/2000/svg">
<path d="M16.8701 30H13.0981V22.2974H6.03027V30H2.24609V12.1533H6.03027V19.1479H13.0981V12.1533H16.8701V30ZM26.6846 16.0718C28.5156 16.0718 29.9194 16.4705 30.896 17.2681C31.8726 18.0656 32.3608 19.2782 32.3608 20.9058V30H29.7607L29.0405 28.1445H28.9429C28.5522 28.6328 28.1535 29.0316 27.7466 29.3408C27.3397 29.6501 26.8717 29.8779 26.3428 30.0244C25.8138 30.1709 25.1709 30.2441 24.4141 30.2441C23.6084 30.2441 22.8841 30.0895 22.2412 29.7803C21.6064 29.471 21.106 28.999 20.7397 28.3643C20.3735 27.7214 20.1904 26.9076 20.1904 25.9229C20.1904 24.4743 20.6991 23.4082 21.7163 22.7246C22.7336 22.0329 24.2594 21.6504 26.2939 21.5771L28.6621 21.5039V20.9058C28.6621 20.1896 28.4749 19.6647 28.1006 19.3311C27.7262 18.9974 27.2054 18.8306 26.5381 18.8306C25.8789 18.8306 25.2319 18.9242 24.5972 19.1113C23.9624 19.2985 23.3276 19.5345 22.6929 19.8193L21.46 17.3047C22.1842 16.9222 22.994 16.6211 23.8892 16.4014C24.7925 16.1816 25.7243 16.0718 26.6846 16.0718ZM28.6621 23.6768L27.2217 23.7256C26.0173 23.7581 25.179 23.9738 24.707 24.3726C24.2432 24.7713 24.0112 25.2962 24.0112 25.9473C24.0112 26.5169 24.1781 26.9238 24.5117 27.168C24.8454 27.404 25.2808 27.522 25.8179 27.522C26.6154 27.522 27.2868 27.286 27.832 26.814C28.3854 26.342 28.6621 25.6706 28.6621 24.7998V23.6768ZM43.8232 16.0962C44.0104 16.0962 44.2261 16.1084 44.4702 16.1328C44.7225 16.1491 44.9259 16.1735 45.0806 16.2061L44.7998 19.6973C44.6777 19.6566 44.5028 19.6281 44.2749 19.6118C44.0552 19.5874 43.8639 19.5752 43.7012 19.5752C43.221 19.5752 42.7531 19.6362 42.2974 19.7583C41.8498 19.8804 41.4469 20.0798 41.0889 20.3564C40.7308 20.625 40.446 20.9831 40.2344 21.4307C40.0309 21.8701 39.9292 22.4113 39.9292 23.0542V30H36.2061V16.3525H39.0259L39.5752 18.6475H39.7583C40.0269 18.1836 40.3605 17.7604 40.7593 17.3779C41.1662 16.9873 41.626 16.6781 42.1387 16.4502C42.6595 16.2142 43.221 16.0962 43.8232 16.0962ZM60.083 16.3525V30H57.2266L56.7261 28.2544H56.5308C56.2378 28.7183 55.8716 29.0967 55.4321 29.3896C54.9927 29.6826 54.5085 29.8983 53.9795 30.0366C53.4505 30.175 52.9012 30.2441 52.3315 30.2441C51.355 30.2441 50.5046 30.0732 49.7803 29.7314C49.056 29.3815 48.4904 28.8403 48.0835 28.1079C47.6847 27.3755 47.4854 26.4233 47.4854 25.2515V16.3525H51.2085V24.3237C51.2085 25.3003 51.3835 26.0368 51.7334 26.5332C52.0833 27.0296 52.6408 27.2778 53.4058 27.2778C54.1626 27.2778 54.7567 27.1069 55.188 26.7651C55.6193 26.4152 55.9204 25.9066 56.0913 25.2393C56.2703 24.5638 56.3599 23.7419 56.3599 22.7734V16.3525H60.083ZM81.311 25.0439C81.311 26.1019 81.0547 27.0215 80.542 27.8027C80.0293 28.584 79.2806 29.1862 78.2959 29.6094C77.3193 30.0326 76.1312 30.2441 74.7314 30.2441C74.113 30.2441 73.5067 30.2035 72.9126 30.1221C72.3267 30.0407 71.7611 29.9227 71.2158 29.7681C70.6787 29.6053 70.166 29.4059 69.6777 29.1699V25.6543C70.5241 26.0286 71.403 26.3664 72.3145 26.6675C73.2259 26.9686 74.1292 27.1191 75.0244 27.1191C75.6429 27.1191 76.1393 27.0378 76.5137 26.875C76.8962 26.7122 77.1729 26.4884 77.3438 26.2036C77.5146 25.9188 77.6001 25.5933 77.6001 25.2271C77.6001 24.7795 77.4495 24.397 77.1484 24.0796C76.8473 23.7622 76.4323 23.4652 75.9033 23.1885C75.3825 22.9118 74.7925 22.6147 74.1333 22.2974C73.7183 22.1021 73.2666 21.866 72.7783 21.5894C72.29 21.3045 71.8262 20.9587 71.3867 20.5518C70.9473 20.1449 70.5851 19.6525 70.3003 19.0747C70.0236 18.4888 69.8853 17.7889 69.8853 16.9751C69.8853 15.909 70.1294 14.9976 70.6177 14.2407C71.106 13.4839 71.8018 12.9061 72.7051 12.5073C73.6165 12.1004 74.6908 11.897 75.9277 11.897C76.8555 11.897 77.7384 12.0068 78.5767 12.2266C79.423 12.4382 80.306 12.7474 81.2256 13.1543L80.0049 16.0962C79.1829 15.7625 78.4465 15.5062 77.7954 15.3271C77.1444 15.14 76.4811 15.0464 75.8057 15.0464C75.3337 15.0464 74.9308 15.1237 74.5972 15.2783C74.2635 15.4248 74.0112 15.6364 73.8403 15.9131C73.6694 16.1816 73.584 16.495 73.584 16.853C73.584 17.2762 73.7061 17.6343 73.9502 17.9272C74.2025 18.2121 74.5768 18.4888 75.0732 18.7573C75.5778 19.0259 76.2044 19.3392 76.9531 19.6973C77.8646 20.1286 78.6418 20.5802 79.2847 21.0522C79.9357 21.5161 80.4362 22.0654 80.7861 22.7002C81.1361 23.3268 81.311 24.1081 81.311 25.0439ZM89.8804 16.0962C91.1418 16.0962 92.2282 16.3403 93.1396 16.8286C94.0511 17.3088 94.755 18.0086 95.2515 18.9282C95.7479 19.8478 95.9961 20.9709 95.9961 22.2974V24.104H87.1948C87.2355 25.1538 87.5488 25.9798 88.1348 26.582C88.7288 27.1761 89.5508 27.4731 90.6006 27.4731C91.4714 27.4731 92.2689 27.3836 92.9932 27.2046C93.7174 27.0256 94.4621 26.757 95.2271 26.3989V29.2798C94.5516 29.6134 93.8436 29.8576 93.103 30.0122C92.3706 30.1668 91.4795 30.2441 90.4297 30.2441C89.0625 30.2441 87.8499 29.9919 86.792 29.4873C85.7422 28.9827 84.9162 28.2137 84.314 27.1802C83.7199 26.1466 83.4229 24.8446 83.4229 23.2739C83.4229 21.6789 83.6914 20.3524 84.2285 19.2944C84.7738 18.2284 85.5306 17.4308 86.499 16.9019C87.4674 16.3647 88.5946 16.0962 89.8804 16.0962ZM89.9048 18.7451C89.1805 18.7451 88.5783 18.9771 88.0981 19.4409C87.6261 19.9048 87.3535 20.6331 87.2803 21.626H92.5049C92.4967 21.0726 92.395 20.5802 92.1997 20.1489C92.0125 19.7176 91.7277 19.3758 91.3452 19.1235C90.9709 18.8713 90.4907 18.7451 89.9048 18.7451ZM111.426 23.1519C111.426 24.2912 111.271 25.3003 110.962 26.1792C110.661 27.0581 110.217 27.8027 109.631 28.4131C109.054 29.0153 108.354 29.471 107.532 29.7803C106.718 30.0895 105.798 30.2441 104.773 30.2441C103.813 30.2441 102.93 30.0895 102.124 29.7803C101.326 29.471 100.631 29.0153 100.037 28.4131C99.4507 27.8027 98.995 27.0581 98.6694 26.1792C98.3521 25.3003 98.1934 24.2912 98.1934 23.1519C98.1934 21.6382 98.4619 20.3564 98.999 19.3066C99.5361 18.2568 100.301 17.4593 101.294 16.9141C102.287 16.3688 103.471 16.0962 104.846 16.0962C106.124 16.0962 107.255 16.3688 108.24 16.9141C109.233 17.4593 110.01 18.2568 110.571 19.3066C111.141 20.3564 111.426 21.6382 111.426 23.1519ZM101.99 23.1519C101.99 24.047 102.087 24.7998 102.283 25.4102C102.478 26.0205 102.783 26.4803 103.198 26.7896C103.613 27.0988 104.154 27.2534 104.822 27.2534C105.481 27.2534 106.014 27.0988 106.421 26.7896C106.836 26.4803 107.137 26.0205 107.324 25.4102C107.52 24.7998 107.617 24.047 107.617 23.1519C107.617 22.2485 107.52 21.4998 107.324 20.9058C107.137 20.3035 106.836 19.8519 106.421 19.5508C106.006 19.2497 105.465 19.0991 104.797 19.0991C103.813 19.0991 103.097 19.4368 102.649 20.1123C102.209 20.7878 101.99 21.8009 101.99 23.1519ZM127.026 16.3525V30H124.17L123.669 28.2544H123.474C123.181 28.7183 122.815 29.0967 122.375 29.3896C121.936 29.6826 121.452 29.8983 120.923 30.0366C120.394 30.175 119.845 30.2441 119.275 30.2441C118.298 30.2441 117.448 30.0732 116.724 29.7314C115.999 29.3815 115.434 28.8403 115.027 28.1079C114.628 27.3755 114.429 26.4233 114.429 25.2515V16.3525H118.152V24.3237C118.152 25.3003 118.327 26.0368 118.677 26.5332C119.027 27.0296 119.584 27.2778 120.349 27.2778C121.106 27.2778 121.7 27.1069 122.131 26.7651C122.563 26.4152 122.864 25.9066 123.035 25.2393C123.214 24.5638 123.303 23.7419 123.303 22.7734V16.3525H127.026ZM134.656 30H130.933V11.0059H134.656V30Z" fill="#092241"/>
</svg>
