<svg width="15" height="14" viewBox="0 0 15 14" fill="none" xmlns="http://www.w3.org/2000/svg">
    <path d="M13.1538 12.8334H2.65381C2.41464 12.8334 2.21631 12.635 2.21631 12.3959C2.21631 12.1567 2.41464 11.9584 2.65381 11.9584H13.1538C13.393 11.9584 13.5913 12.1567 13.5913 12.3959C13.5913 12.635 13.393 12.8334 13.1538 12.8334Z" fill="#6B7A8D"/>
    <path d="M11.9986 2.03001C10.867 0.898344 9.75865 0.869177 8.59781 2.03001L7.89198 2.73584C7.83365 2.79418 7.81032 2.88751 7.83365 2.96918C8.27698 4.51501 9.51365 5.75168 11.0595 6.19501C11.0828 6.20084 11.1061 6.20668 11.1295 6.20668C11.1936 6.20668 11.252 6.18334 11.2986 6.13668L11.9986 5.43084C12.5761 4.85918 12.8561 4.30501 12.8561 3.74501C12.862 3.16751 12.582 2.60751 11.9986 2.03001Z" fill="#6B7A8D"/>
    <path d="M10.0097 6.72584C9.8405 6.64417 9.67717 6.56251 9.51967 6.46917C9.39133 6.39334 9.26883 6.31167 9.14633 6.22417C9.04717 6.16001 8.9305 6.06667 8.81967 5.97334C8.808 5.96751 8.76717 5.93251 8.7205 5.88584C8.528 5.72251 8.31217 5.51251 8.11967 5.27917C8.10217 5.26751 8.073 5.22667 8.03217 5.17417C7.97383 5.10417 7.87467 4.98751 7.78717 4.85334C7.71717 4.76584 7.6355 4.63751 7.55967 4.50917C7.46633 4.35167 7.38467 4.19417 7.303 4.03084C7.19592 3.80139 6.89477 3.73323 6.71573 3.91227L3.4355 7.19251C3.35967 7.26834 3.28967 7.41417 3.27217 7.51334L2.95717 9.74751C2.89883 10.1442 3.00967 10.5175 3.25467 10.7683C3.46467 10.9725 3.75633 11.0833 4.07133 11.0833C4.14133 11.0833 4.21133 11.0775 4.28133 11.0658L6.52133 10.7508C6.62633 10.7333 6.77217 10.6633 6.84217 10.5875L10.1278 7.30186C10.3033 7.1264 10.2373 6.8245 10.0097 6.72584Z" fill="#6B7A8D"/>
</svg>
