<svg width="34" height="34" viewBox="0 0 34 34" fill="none" xmlns="http://www.w3.org/2000/svg">
<g filter="url(#filter0_d_2117_27451)">
<circle cx="17" cy="15" r="12" fill="white"/>
</g>
<path d="M11.6842 23C11.4456 23 11.2456 22.9193 11.0842 22.7579C10.9228 22.5965 10.8421 22.3965 10.8421 22.1579V20.4316C10.5895 20.1509 10.386 19.8386 10.2316 19.4947C10.0772 19.1509 10 18.7754 10 18.3684V10.3684C10 9.20351 10.5404 8.35088 11.6211 7.81053C12.7018 7.27018 14.407 7 16.7368 7C19.1509 7 20.8772 7.25965 21.9158 7.77895C22.9544 8.29825 23.4737 9.1614 23.4737 10.3684V18.3684C23.4737 18.7754 23.3965 19.1509 23.2421 19.4947C23.0877 19.8386 22.8842 20.1509 22.6316 20.4316V22.1579C22.6316 22.3965 22.5509 22.5965 22.3895 22.7579C22.2281 22.9193 22.0281 23 21.7895 23H20.9474C20.7088 23 20.5088 22.9193 20.3474 22.7579C20.186 22.5965 20.1053 22.3965 20.1053 22.1579V21.3158H13.3684V22.1579C13.3684 22.3965 13.2877 22.5965 13.1263 22.7579C12.9649 22.9193 12.7649 23 12.5263 23H11.6842ZM16.7789 9.52632H21.4947H12.0632H16.7789ZM20.1053 15.4211H11.6842H21.7895H20.1053ZM11.6842 13.7368H21.7895V11.2105H11.6842V13.7368ZM13.7895 18.7895C14.1404 18.7895 14.4386 18.6667 14.6842 18.4211C14.9298 18.1754 15.0526 17.8772 15.0526 17.5263C15.0526 17.1754 14.9298 16.8772 14.6842 16.6316C14.4386 16.386 14.1404 16.2632 13.7895 16.2632C13.4386 16.2632 13.1404 16.386 12.8947 16.6316C12.6491 16.8772 12.5263 17.1754 12.5263 17.5263C12.5263 17.8772 12.6491 18.1754 12.8947 18.4211C13.1404 18.6667 13.4386 18.7895 13.7895 18.7895ZM19.6842 18.7895C20.0351 18.7895 20.3333 18.6667 20.5789 18.4211C20.8246 18.1754 20.9474 17.8772 20.9474 17.5263C20.9474 17.1754 20.8246 16.8772 20.5789 16.6316C20.3333 16.386 20.0351 16.2632 19.6842 16.2632C19.3333 16.2632 19.0351 16.386 18.7895 16.6316C18.5439 16.8772 18.4211 17.1754 18.4211 17.5263C18.4211 17.8772 18.5439 18.1754 18.7895 18.4211C19.0351 18.6667 19.3333 18.7895 19.6842 18.7895ZM12.0632 9.52632H21.4947C21.2842 9.28772 20.8316 9.08772 20.1368 8.92632C19.4421 8.76491 18.3228 8.68421 16.7789 8.68421C15.2772 8.68421 14.1789 8.77193 13.4842 8.94737C12.7895 9.12281 12.3158 9.31579 12.0632 9.52632ZM13.3684 19.6316H20.1053C20.5684 19.6316 20.9649 19.4667 21.2947 19.1368C21.6246 18.807 21.7895 18.4105 21.7895 17.9474V15.4211H11.6842V17.9474C11.6842 18.4105 11.8491 18.807 12.1789 19.1368C12.5088 19.4667 12.9053 19.6316 13.3684 19.6316Z" fill="#352F36"/>
<defs>
<filter id="filter0_d_2117_27451" x="0.3" y="0.3" width="33.4" height="33.4" filterUnits="userSpaceOnUse" color-interpolation-filters="sRGB">
<feFlood flood-opacity="0" result="BackgroundImageFix"/>
<feColorMatrix in="SourceAlpha" type="matrix" values="0 0 0 0 0 0 0 0 0 0 0 0 0 0 0 0 0 0 127 0" result="hardAlpha"/>
<feMorphology radius="0.7" operator="dilate" in="SourceAlpha" result="effect1_dropShadow_2117_27451"/>
<feOffset dy="2"/>
<feGaussianBlur stdDeviation="2"/>
<feComposite in2="hardAlpha" operator="out"/>
<feColorMatrix type="matrix" values="0 0 0 0 0 0 0 0 0 0 0 0 0 0 0 0 0 0 0.25 0"/>
<feBlend mode="normal" in2="BackgroundImageFix" result="effect1_dropShadow_2117_27451"/>
<feBlend mode="normal" in="SourceGraphic" in2="effect1_dropShadow_2117_27451" result="shape"/>
</filter>
</defs>
</svg>
