<svg width="12" height="12" viewBox="0 0 12 12" fill="none" xmlns="http://www.w3.org/2000/svg">
<path d="M2.2 5.25L5.6 0L9 5.25H2.2ZM9.2 12C8.42222 12 7.76111 11.7448 7.21667 11.2344C6.67222 10.724 6.4 10.1042 6.4 9.375C6.4 8.64583 6.67222 8.02604 7.21667 7.51563C7.76111 7.00521 8.42222 6.75 9.2 6.75C9.97778 6.75 10.6389 7.00521 11.1833 7.51563C11.7278 8.02604 12 8.64583 12 9.375C12 10.1042 11.7278 10.724 11.1833 11.2344C10.6389 11.7448 9.97778 12 9.2 12ZM0 11.625V7.125H4.8V11.625H0ZM9.19617 10.875C9.64317 10.875 10.0222 10.7304 10.3333 10.4411C10.6444 10.1517 10.8 9.79755 10.8 9.37859C10.8 8.95953 10.6457 8.60417 10.3372 8.3125C10.0285 8.02083 9.65072 7.875 9.20383 7.875C8.75683 7.875 8.37778 8.01964 8.06667 8.30891C7.75556 8.59828 7.6 8.95245 7.6 9.37141C7.6 9.79047 7.75428 10.1458 8.06283 10.4375C8.3715 10.7292 8.74928 10.875 9.19617 10.875ZM1.2 10.5H3.6V8.25H1.2V10.5ZM4.33333 4.125H6.86667L5.6 2.17188L4.33333 4.125Z" fill="#666D75"/>
</svg>
