<svg width="27" height="28" viewBox="0 0 27 28" fill="none" xmlns="http://www.w3.org/2000/svg">
    <path d="M10.5054 18.4882C14.0564 18.2909 16.875 15.3492 16.875 11.7489C16.875 8.02098 13.8529 4.9989 10.125 4.9989C6.39708 4.9989 3.375 8.02098 3.375 11.7489C3.375 13.0772 3.75855 14.3158 4.42112 15.3601L3.94409 16.7912L3.94333 16.7933C3.76062 17.3414 3.66923 17.6156 3.73431 17.7981C3.79102 17.9572 3.9169 18.0825 4.07593 18.1392C4.25781 18.2041 4.53009 18.1133 5.07453 17.9318L5.08228 17.9295L6.51379 17.4525C7.55809 18.115 8.79677 18.4987 10.1251 18.4987C10.2527 18.4987 10.3795 18.4952 10.5054 18.4882ZM10.5054 18.4882C10.5055 18.4884 10.5053 18.4879 10.5054 18.4882ZM10.5054 18.4882C11.429 21.1155 13.9321 22.9991 16.8752 22.9991C18.2035 22.9991 19.4419 22.6151 20.4861 21.9525L21.9173 22.4295L21.9201 22.43C22.4681 22.6127 22.7428 22.7043 22.9253 22.6392C23.0843 22.5825 23.2086 22.4571 23.2653 22.2981C23.3305 22.1154 23.2393 21.8408 23.0561 21.2912L22.5791 19.8601L22.7389 19.5953C23.303 18.6091 23.6244 17.4665 23.6244 16.2489C23.6244 12.521 20.6029 9.4989 16.875 9.4989L16.6223 9.50356L16.4949 9.50979" stroke="#0C0C0C" stroke-width="1.5" stroke-linecap="round" stroke-linejoin="round"/>
</svg>
