<svg width="24" height="25" viewBox="0 0 24 25" fill="none" xmlns="http://www.w3.org/2000/svg">
    <g clip-path="url(#clip0_785_9770)">
        <path d="M2 22.5V4.5C2 3.95 2.19583 3.47917 2.5875 3.0875C2.97917 2.69583 3.45 2.5 4 2.5H14.1C14.0333 2.83333 14 3.16667 14 3.5C14 3.83333 14.0333 4.16667 14.1 4.5H4V17.625L5.15 16.5H20V8.4C20.3833 8.31667 20.7417 8.20417 21.075 8.0625C21.4083 7.92083 21.7167 7.73333 22 7.5V16.5C22 17.05 21.8042 17.5208 21.4125 17.9125C21.0208 18.3042 20.55 18.5 20 18.5H6L2 22.5ZM19 6.5C18.1667 6.5 17.4583 6.20833 16.875 5.625C16.2917 5.04167 16 4.33333 16 3.5C16 2.66667 16.2917 1.95833 16.875 1.375C17.4583 0.791667 18.1667 0.5 19 0.5C19.8333 0.5 20.5417 0.791667 21.125 1.375C21.7083 1.95833 22 2.66667 22 3.5C22 4.33333 21.7083 5.04167 21.125 5.625C20.5417 6.20833 19.8333 6.5 19 6.5Z" fill="#9DA7B3"/>
    </g>
    <defs>
        <clipPath id="clip0_785_9770">
            <rect width="24" height="24" fill="white" transform="translate(0 0.5)"/>
        </clipPath>
    </defs>
</svg>