<svg width="27" height="27" viewBox="0 0 27 27" fill="none" xmlns="http://www.w3.org/2000/svg">
    <path d="M10.125 16.873L12.375 19.123L16.875 14.623M14.625 3.37402C14.5176 3.37305 14.3969 3.37305 14.2591 3.37305H9.22522C7.9651 3.37305 7.33457 3.37305 6.85327 3.61828C6.42991 3.834 6.08595 4.17795 5.87024 4.60132C5.625 5.08262 5.625 5.71315 5.625 6.97327V20.0233C5.625 21.2834 5.625 21.9131 5.87024 22.3944C6.08595 22.8178 6.42991 23.1623 6.85327 23.3781C7.33411 23.623 7.96388 23.623 9.22156 23.623L17.7785 23.623C19.0361 23.623 19.665 23.623 20.1458 23.3781C20.5692 23.1623 20.9143 22.8178 21.13 22.3944C21.375 21.9136 21.375 21.2847 21.375 20.0271V10.4894C21.375 10.3514 21.375 10.2306 21.3739 10.123M14.625 3.37402C14.9463 3.37695 15.1496 3.38862 15.3437 3.43521C15.5733 3.49033 15.7926 3.58147 15.9939 3.70483C16.2209 3.84393 16.4158 4.03884 16.8047 4.42773L20.3209 7.9439C20.71 8.33304 20.9035 8.52708 21.0426 8.75414C21.166 8.95545 21.2573 9.17496 21.3124 9.40454C21.3589 9.59853 21.3709 9.80187 21.3739 10.123M14.625 3.37402V6.52305C14.625 7.78316 14.625 8.41279 14.8702 8.89409C15.086 9.31745 15.4299 9.66234 15.8533 9.87805C16.3341 10.123 16.9639 10.123 18.2215 10.123H21.3739M21.3739 10.123H21.3752" stroke="#092241" stroke-width="1.7" stroke-linecap="round" stroke-linejoin="round"/>
</svg>
