<svg width="20" height="20" viewBox="0 0 20 21" fill="none" xmlns="http://www.w3.org/2000/svg">
<path d="M6.4 15.8457L10 12.2457L13.6 15.8457L15 14.4457L11.4 10.8457L15 7.2457L13.6 5.8457L10 9.4457L6.4 5.8457L5 7.2457L8.6 10.8457L5 14.4457L6.4 15.8457ZM10 20.8457C8.61667 20.8457 7.31667 20.5832 6.1 20.0582C4.88333 19.5332 3.825 18.8207 2.925 17.9207C2.025 17.0207 1.3125 15.9624 0.7875 14.7457C0.2625 13.529 0 12.229 0 10.8457C0 9.46237 0.2625 8.16237 0.7875 6.9457C1.3125 5.72904 2.025 4.6707 2.925 3.7707C3.825 2.8707 4.88333 2.1582 6.1 1.6332C7.31667 1.1082 8.61667 0.845703 10 0.845703C11.3833 0.845703 12.6833 1.1082 13.9 1.6332C15.1167 2.1582 16.175 2.8707 17.075 3.7707C17.975 4.6707 18.6875 5.72904 19.2125 6.9457C19.7375 8.16237 20 9.46237 20 10.8457C20 12.229 19.7375 13.529 19.2125 14.7457C18.6875 15.9624 17.975 17.0207 17.075 17.9207C16.175 18.8207 15.1167 19.5332 13.9 20.0582C12.6833 20.5832 11.3833 20.8457 10 20.8457ZM10 18.8457C12.2333 18.8457 14.125 18.0707 15.675 16.5207C17.225 14.9707 18 13.079 18 10.8457C18 8.61237 17.225 6.7207 15.675 5.1707C14.125 3.6207 12.2333 2.8457 10 2.8457C7.76667 2.8457 5.875 3.6207 4.325 5.1707C2.775 6.7207 2 8.61237 2 10.8457C2 13.079 2.775 14.9707 4.325 16.5207C5.875 18.0707 7.76667 18.8457 10 18.8457Z" fill="#E91C1C"/>
</svg>
