<svg width="25" height="24" viewBox="0 0 25 24" fill="none" xmlns="http://www.w3.org/2000/svg">
    <path d="M12.9102 21C17.8807 21 21.9102 16.9706 21.9102 12C21.9102 7.02944 17.8807 3 12.9102 3C7.93959 3 3.91016 7.02944 3.91016 12C3.91016 16.9706 7.93959 21 12.9102 21Z" stroke="#0C0C0C" stroke-width="1.5" stroke-miterlimit="10"/>
    <path d="M4.42188 9H21.3967" stroke="#0C0C0C" stroke-width="1.5" stroke-linecap="round" stroke-linejoin="round"/>
    <path d="M4.42383 15H21.3986" stroke="#0C0C0C" stroke-width="1.5" stroke-linecap="round" stroke-linejoin="round"/>
    <path d="M12.9102 20.759C14.9812 20.759 16.6602 16.8377 16.6602 12.0006C16.6602 7.16346 14.9812 3.24219 12.9102 3.24219C10.8391 3.24219 9.16016 7.16346 9.16016 12.0006C9.16016 16.8377 10.8391 20.759 12.9102 20.759Z" stroke="#0C0C0C" stroke-width="1.5" stroke-miterlimit="10"/>
</svg>
