<svg width="21" height="21" viewBox="0 0 21 21" fill="none" xmlns="http://www.w3.org/2000/svg">
    <g clip-path="url(#clip0_785_8281)">
        <path d="M8.0394 17.4338C11.4647 18.6805 15.2105 17.3123 17.0636 14.4866L15.126 13.7814C13.8035 15.3001 11.0919 16.4709 8.70593 15.6025C5.76507 14.5321 4.22325 11.3235 5.27113 8.44447C6.31891 5.56573 9.5631 4.0971 12.504 5.16749C14.2946 5.81924 15.5673 7.24582 16.0478 8.92759L13.1454 10.2271L18.7836 12.2792L20.7773 6.80168L17.8516 8.12823C17.1362 5.9933 15.4758 4.17774 13.1697 3.3384C9.19668 1.89234 4.81557 3.87519 3.40032 7.76355C1.98496 11.6522 4.06638 15.9877 8.0394 17.4338Z" fill="#2B96ED"/>
    </g>
    <defs>
        <clipPath id="clip0_785_8281">
            <rect width="16" height="15" fill="white" transform="translate(15.8701 20.2839) rotate(-160)"/>
        </clipPath>
    </defs>
</svg>
