<svg width="131" height="40" viewBox="0 0 131 40" fill="none" xmlns="http://www.w3.org/2000/svg">
<path d="M16.8701 30H13.0981V22.2974H6.03027V30H2.24609V12.1533H6.03027V19.1479H13.0981V12.1533H16.8701V30ZM26.6846 16.0718C28.5156 16.0718 29.9194 16.4705 30.896 17.2681C31.8726 18.0656 32.3608 19.2782 32.3608 20.9058V30H29.7607L29.0405 28.1445H28.9429C28.5522 28.6328 28.1535 29.0316 27.7466 29.3408C27.3397 29.6501 26.8717 29.8779 26.3428 30.0244C25.8138 30.1709 25.1709 30.2441 24.4141 30.2441C23.6084 30.2441 22.8841 30.0895 22.2412 29.7803C21.6064 29.471 21.106 28.999 20.7397 28.3643C20.3735 27.7214 20.1904 26.9076 20.1904 25.9229C20.1904 24.4743 20.6991 23.4082 21.7163 22.7246C22.7336 22.0329 24.2594 21.6504 26.2939 21.5771L28.6621 21.5039V20.9058C28.6621 20.1896 28.4749 19.6647 28.1006 19.3311C27.7262 18.9974 27.2054 18.8306 26.5381 18.8306C25.8789 18.8306 25.2319 18.9242 24.5972 19.1113C23.9624 19.2985 23.3276 19.5345 22.6929 19.8193L21.46 17.3047C22.1842 16.9222 22.994 16.6211 23.8892 16.4014C24.7925 16.1816 25.7243 16.0718 26.6846 16.0718ZM28.6621 23.6768L27.2217 23.7256C26.0173 23.7581 25.179 23.9738 24.707 24.3726C24.2432 24.7713 24.0112 25.2962 24.0112 25.9473C24.0112 26.5169 24.1781 26.9238 24.5117 27.168C24.8454 27.404 25.2808 27.522 25.8179 27.522C26.6154 27.522 27.2868 27.286 27.832 26.814C28.3854 26.342 28.6621 25.6706 28.6621 24.7998V23.6768ZM43.8232 16.0962C44.0104 16.0962 44.2261 16.1084 44.4702 16.1328C44.7225 16.1491 44.9259 16.1735 45.0806 16.2061L44.7998 19.6973C44.6777 19.6566 44.5028 19.6281 44.2749 19.6118C44.0552 19.5874 43.8639 19.5752 43.7012 19.5752C43.221 19.5752 42.7531 19.6362 42.2974 19.7583C41.8498 19.8804 41.4469 20.0798 41.0889 20.3564C40.7308 20.625 40.446 20.9831 40.2344 21.4307C40.0309 21.8701 39.9292 22.4113 39.9292 23.0542V30H36.2061V16.3525H39.0259L39.5752 18.6475H39.7583C40.0269 18.1836 40.3605 17.7604 40.7593 17.3779C41.1662 16.9873 41.626 16.6781 42.1387 16.4502C42.6595 16.2142 43.221 16.0962 43.8232 16.0962ZM60.083 16.3525V30H57.2266L56.7261 28.2544H56.5308C56.2378 28.7183 55.8716 29.0967 55.4321 29.3896C54.9927 29.6826 54.5085 29.8983 53.9795 30.0366C53.4505 30.175 52.9012 30.2441 52.3315 30.2441C51.355 30.2441 50.5046 30.0732 49.7803 29.7314C49.056 29.3815 48.4904 28.8403 48.0835 28.1079C47.6847 27.3755 47.4854 26.4233 47.4854 25.2515V16.3525H51.2085V24.3237C51.2085 25.3003 51.3835 26.0368 51.7334 26.5332C52.0833 27.0296 52.6408 27.2778 53.4058 27.2778C54.1626 27.2778 54.7567 27.1069 55.188 26.7651C55.6193 26.4152 55.9204 25.9066 56.0913 25.2393C56.2703 24.5638 56.3599 23.7419 56.3599 22.7734V16.3525H60.083ZM74.8169 25.0439C74.8169 26.1019 74.5605 27.0215 74.0479 27.8027C73.5352 28.584 72.7865 29.1862 71.8018 29.6094C70.8252 30.0326 69.637 30.2441 68.2373 30.2441C67.6188 30.2441 67.0125 30.2035 66.4185 30.1221C65.8325 30.0407 65.2669 29.9227 64.7217 29.7681C64.1846 29.6053 63.6719 29.4059 63.1836 29.1699V25.6543C64.0299 26.0286 64.9089 26.3664 65.8203 26.6675C66.7318 26.9686 67.6351 27.1191 68.5303 27.1191C69.1488 27.1191 69.6452 27.0378 70.0195 26.875C70.402 26.7122 70.6787 26.4884 70.8496 26.2036C71.0205 25.9188 71.106 25.5933 71.106 25.2271C71.106 24.7795 70.9554 24.397 70.6543 24.0796C70.3532 23.7622 69.9382 23.4652 69.4092 23.1885C68.8883 22.9118 68.2983 22.6147 67.6392 22.2974C67.2241 22.1021 66.7725 21.866 66.2842 21.5894C65.7959 21.3045 65.332 20.9587 64.8926 20.5518C64.4531 20.1449 64.091 19.6525 63.8062 19.0747C63.5295 18.4888 63.3911 17.7889 63.3911 16.9751C63.3911 15.909 63.6353 14.9976 64.1235 14.2407C64.6118 13.4839 65.3076 12.9061 66.2109 12.5073C67.1224 12.1004 68.1966 11.897 69.4336 11.897C70.3613 11.897 71.2443 12.0068 72.0825 12.2266C72.9289 12.4382 73.8118 12.7474 74.7314 13.1543L73.5107 16.0962C72.6888 15.7625 71.9523 15.5062 71.3013 15.3271C70.6502 15.14 69.987 15.0464 69.3115 15.0464C68.8395 15.0464 68.4367 15.1237 68.103 15.2783C67.7694 15.4248 67.5171 15.6364 67.3462 15.9131C67.1753 16.1816 67.0898 16.495 67.0898 16.853C67.0898 17.2762 67.2119 17.6343 67.4561 17.9272C67.7083 18.2121 68.0827 18.4888 68.5791 18.7573C69.0837 19.0259 69.7103 19.3392 70.459 19.6973C71.3704 20.1286 72.1476 20.5802 72.7905 21.0522C73.4416 21.5161 73.9421 22.0654 74.292 22.7002C74.6419 23.3268 74.8169 24.1081 74.8169 25.0439ZM83.3862 16.0962C84.6476 16.0962 85.734 16.3403 86.6455 16.8286C87.557 17.3088 88.2609 18.0086 88.7573 18.9282C89.2537 19.8478 89.502 20.9709 89.502 22.2974V24.104H80.7007C80.7414 25.1538 81.0547 25.9798 81.6406 26.582C82.2347 27.1761 83.0566 27.4731 84.1064 27.4731C84.9772 27.4731 85.7747 27.3836 86.499 27.2046C87.2233 27.0256 87.9679 26.757 88.7329 26.3989V29.2798C88.0575 29.6134 87.3494 29.8576 86.6089 30.0122C85.8765 30.1668 84.9854 30.2441 83.9355 30.2441C82.5684 30.2441 81.3558 29.9919 80.2979 29.4873C79.248 28.9827 78.422 28.2137 77.8198 27.1802C77.2257 26.1466 76.9287 24.8446 76.9287 23.2739C76.9287 21.6789 77.1973 20.3524 77.7344 19.2944C78.2796 18.2284 79.0365 17.4308 80.0049 16.9019C80.9733 16.3647 82.1004 16.0962 83.3862 16.0962ZM83.4106 18.7451C82.6864 18.7451 82.0841 18.9771 81.604 19.4409C81.132 19.9048 80.8594 20.6331 80.7861 21.626H86.0107C86.0026 21.0726 85.9009 20.5802 85.7056 20.1489C85.5184 19.7176 85.2336 19.3758 84.8511 19.1235C84.4767 18.8713 83.9966 18.7451 83.4106 18.7451ZM104.932 23.1519C104.932 24.2912 104.777 25.3003 104.468 26.1792C104.167 27.0581 103.723 27.8027 103.137 28.4131C102.559 29.0153 101.86 29.471 101.038 29.7803C100.224 30.0895 99.3042 30.2441 98.2788 30.2441C97.3185 30.2441 96.4355 30.0895 95.6299 29.7803C94.8324 29.471 94.1366 29.0153 93.5425 28.4131C92.9565 27.8027 92.5008 27.0581 92.1753 26.1792C91.8579 25.3003 91.6992 24.2912 91.6992 23.1519C91.6992 21.6382 91.9678 20.3564 92.5049 19.3066C93.042 18.2568 93.807 17.4593 94.7998 16.9141C95.7926 16.3688 96.9767 16.0962 98.3521 16.0962C99.6297 16.0962 100.761 16.3688 101.746 16.9141C102.738 17.4593 103.516 18.2568 104.077 19.3066C104.647 20.3564 104.932 21.6382 104.932 23.1519ZM95.4956 23.1519C95.4956 24.047 95.5933 24.7998 95.7886 25.4102C95.9839 26.0205 96.2891 26.4803 96.7041 26.7896C97.1191 27.0988 97.6603 27.2534 98.3276 27.2534C98.9868 27.2534 99.5199 27.0988 99.9268 26.7896C100.342 26.4803 100.643 26.0205 100.83 25.4102C101.025 24.7998 101.123 24.047 101.123 23.1519C101.123 22.2485 101.025 21.4998 100.83 20.9058C100.643 20.3035 100.342 19.8519 99.9268 19.5508C99.5117 19.2497 98.9705 19.0991 98.3032 19.0991C97.3185 19.0991 96.6024 19.4368 96.1548 20.1123C95.7153 20.7878 95.4956 21.8009 95.4956 23.1519ZM120.532 16.3525V30H117.676L117.175 28.2544H116.98C116.687 28.7183 116.321 29.0967 115.881 29.3896C115.442 29.6826 114.958 29.8983 114.429 30.0366C113.9 30.175 113.35 30.2441 112.781 30.2441C111.804 30.2441 110.954 30.0732 110.229 29.7314C109.505 29.3815 108.94 28.8403 108.533 28.1079C108.134 27.3755 107.935 26.4233 107.935 25.2515V16.3525H111.658V24.3237C111.658 25.3003 111.833 26.0368 112.183 26.5332C112.533 27.0296 113.09 27.2778 113.855 27.2778C114.612 27.2778 115.206 27.1069 115.637 26.7651C116.069 26.4152 116.37 25.9066 116.541 25.2393C116.72 24.5638 116.809 23.7419 116.809 22.7734V16.3525H120.532ZM128.162 30H124.438V11.0059H128.162V30Z" fill="#092241"/>
</svg>
