<svg width="20" height="20" viewBox="0 0 20 20" fill="none" xmlns="http://www.w3.org/2000/svg">
    <path d="M10.0007 16.6666C9.54232 16.6666 9.14996 16.5034 8.82357 16.177C8.49718 15.8506 8.33398 15.4583 8.33398 14.9999C8.33398 14.5416 8.49718 14.1492 8.82357 13.8228C9.14996 13.4964 9.54232 13.3333 10.0007 13.3333C10.459 13.3333 10.8513 13.4964 11.1777 13.8228C11.5041 14.1492 11.6673 14.5416 11.6673 14.9999C11.6673 15.4583 11.5041 15.8506 11.1777 16.177C10.8513 16.5034 10.459 16.6666 10.0007 16.6666ZM10.0007 11.6666C9.54232 11.6666 9.14996 11.5034 8.82357 11.177C8.49718 10.8506 8.33398 10.4583 8.33398 9.99992C8.33398 9.54158 8.49718 9.14922 8.82357 8.82283C9.14996 8.49645 9.54232 8.33325 10.0007 8.33325C10.459 8.33325 10.8513 8.49645 11.1777 8.82283C11.5041 9.14922 11.6673 9.54158 11.6673 9.99992C11.6673 10.4583 11.5041 10.8506 11.1777 11.177C10.8513 11.5034 10.459 11.6666 10.0007 11.6666ZM10.0007 6.66659C9.54232 6.66659 9.14996 6.50339 8.82357 6.177C8.49718 5.85061 8.33398 5.45825 8.33398 4.99992C8.33398 4.54159 8.49718 4.14922 8.82357 3.82284C9.14996 3.49645 9.54232 3.33325 10.0007 3.33325C10.459 3.33325 10.8513 3.49645 11.1777 3.82284C11.5041 4.14922 11.6673 4.54159 11.6673 4.99992C11.6673 5.45825 11.5041 5.85061 11.1777 6.177C10.8513 6.50339 10.459 6.66659 10.0007 6.66659Z" fill="#0C0C0C"/>
</svg>
