<svg width="25" height="25" viewBox="0 0 25 25" fill="none" xmlns="http://www.w3.org/2000/svg">
    <path d="M14.8438 7.8125V19.8944C14.8438 20.023 14.8755 20.1496 14.9362 20.263C14.9969 20.3764 15.0846 20.4731 15.1916 20.5444L16.2651 21.2601C16.3693 21.3295 16.4886 21.3729 16.613 21.3866C16.7375 21.4003 16.8634 21.3839 16.9802 21.3387C17.0969 21.2936 17.2012 21.221 17.284 21.1272C17.3669 21.0333 17.426 20.921 17.4564 20.7995L18.75 15.625" stroke="#092241" stroke-width="1.7" stroke-linecap="round" stroke-linejoin="round"/>
    <path d="M18.75 15.6256C19.786 15.6256 20.7796 15.2141 21.5121 14.4815C22.2447 13.749 22.6562 12.7554 22.6562 11.7194C22.6562 10.6834 22.2447 9.68983 21.5121 8.95726C20.7796 8.2247 19.786 7.81315 18.75 7.81315H14.8438C14.8438 7.81315 9.5262 7.81315 4.40908 3.52139C4.29527 3.4256 4.15648 3.3643 4.00903 3.3447C3.86157 3.3251 3.71159 3.34801 3.57671 3.41074C3.44183 3.47347 3.32767 3.57341 3.24765 3.6988C3.16763 3.82419 3.12508 3.96983 3.125 4.11858V19.3202C3.12508 19.469 3.16763 19.6146 3.24765 19.74C3.32767 19.8654 3.44183 19.9653 3.57671 20.0281C3.71159 20.0908 3.86157 20.1137 4.00903 20.0941C4.15648 20.0745 4.29527 20.0132 4.40908 19.9174C9.5262 15.6256 14.8438 15.6256 14.8438 15.6256H18.75Z" stroke="#092241" stroke-width="1.7" stroke-linecap="round" stroke-linejoin="round"/>
</svg>
