<svg width="12" height="12" viewBox="0 0 12 12" fill="none" xmlns="http://www.w3.org/2000/svg">
<mask id="mask0_1946_33288" style="mask-type:alpha" maskUnits="userSpaceOnUse" x="0" y="0" width="12" height="12">
<rect width="12" height="12" fill="#D9D9D9"/>
</mask>
<g mask="url(#mask0_1946_33288)">
<path d="M3 6.9C3.25 6.9 3.4625 6.8125 3.6375 6.6375C3.8125 6.4625 3.9 6.25 3.9 6C3.9 5.75 3.8125 5.5375 3.6375 5.3625C3.4625 5.1875 3.25 5.1 3 5.1C2.75 5.1 2.5375 5.1875 2.3625 5.3625C2.1875 5.5375 2.1 5.75 2.1 6C2.1 6.25 2.1875 6.4625 2.3625 6.6375C2.5375 6.8125 2.75 6.9 3 6.9ZM6 6.9C6.25 6.9 6.4625 6.8125 6.6375 6.6375C6.8125 6.4625 6.9 6.25 6.9 6C6.9 5.75 6.8125 5.5375 6.6375 5.3625C6.4625 5.1875 6.25 5.1 6 5.1C5.75 5.1 5.5375 5.1875 5.3625 5.3625C5.1875 5.5375 5.1 5.75 5.1 6C5.1 6.25 5.1875 6.4625 5.3625 6.6375C5.5375 6.8125 5.75 6.9 6 6.9ZM9 6.9C9.25 6.9 9.4625 6.8125 9.6375 6.6375C9.8125 6.4625 9.9 6.25 9.9 6C9.9 5.75 9.8125 5.5375 9.6375 5.3625C9.4625 5.1875 9.25 5.1 9 5.1C8.75 5.1 8.5375 5.1875 8.3625 5.3625C8.1875 5.5375 8.1 5.75 8.1 6C8.1 6.25 8.1875 6.4625 8.3625 6.6375C8.5375 6.8125 8.75 6.9 9 6.9ZM6 12C5.17 12 4.39 11.8425 3.66 11.5275C2.93 11.2125 2.295 10.785 1.755 10.245C1.215 9.705 0.7875 9.07 0.4725 8.34C0.1575 7.61 0 6.83 0 6C0 5.17 0.1575 4.39 0.4725 3.66C0.7875 2.93 1.215 2.295 1.755 1.755C2.295 1.215 2.93 0.7875 3.66 0.4725C4.39 0.1575 5.17 0 6 0C6.83 0 7.61 0.1575 8.34 0.4725C9.07 0.7875 9.705 1.215 10.245 1.755C10.785 2.295 11.2125 2.93 11.5275 3.66C11.8425 4.39 12 5.17 12 6C12 6.83 11.8425 7.61 11.5275 8.34C11.2125 9.07 10.785 9.705 10.245 10.245C9.705 10.785 9.07 11.2125 8.34 11.5275C7.61 11.8425 6.83 12 6 12ZM6 10.8C7.34 10.8 8.475 10.335 9.405 9.405C10.335 8.475 10.8 7.34 10.8 6C10.8 4.66 10.335 3.525 9.405 2.595C8.475 1.665 7.34 1.2 6 1.2C4.66 1.2 3.525 1.665 2.595 2.595C1.665 3.525 1.2 4.66 1.2 6C1.2 7.34 1.665 8.475 2.595 9.405C3.525 10.335 4.66 10.8 6 10.8Z" fill="#666D75"/>
</g>
</svg>
