<svg width="34" height="34" viewBox="0 0 34 34" fill="none" xmlns="http://www.w3.org/2000/svg">
<g filter="url(#filter0_d_2117_27453)">
<circle cx="17" cy="15" r="12" fill="white"/>
</g>
<path d="M9.00006 23.0002V12.4802C9.00006 11.3469 9.29339 10.3635 9.88006 9.53021C10.4667 8.69688 11.2934 8.06688 12.3601 7.64021C13.0801 7.36021 13.8467 7.18355 14.6601 7.11021C15.4734 7.03688 16.2534 7.00021 17.0001 7.00021C17.7467 7.00021 18.5267 7.03688 19.3401 7.11021C20.1534 7.18355 20.9201 7.36021 21.6401 7.64021C22.7067 8.06688 23.5334 8.69688 24.1201 9.53021C24.7067 10.3635 25.0001 11.3469 25.0001 12.4802V23.0002H9.00006ZM14.6801 21.4002H19.2801L18.0801 20.2002H15.8801L14.6801 21.4002ZM13.4001 15.8002H20.6001V12.6002H13.4001V15.8002ZM19.8001 18.6002C20.0267 18.6002 20.2167 18.5235 20.3701 18.3702C20.5234 18.2169 20.6001 18.0269 20.6001 17.8002C20.6001 17.5735 20.5234 17.3835 20.3701 17.2302C20.2167 17.0769 20.0267 17.0002 19.8001 17.0002C19.5734 17.0002 19.3834 17.0769 19.2301 17.2302C19.0767 17.3835 19.0001 17.5735 19.0001 17.8002C19.0001 18.0269 19.0767 18.2169 19.2301 18.3702C19.3834 18.5235 19.5734 18.6002 19.8001 18.6002ZM14.2001 18.6002C14.4267 18.6002 14.6167 18.5235 14.7701 18.3702C14.9234 18.2169 15.0001 18.0269 15.0001 17.8002C15.0001 17.5735 14.9234 17.3835 14.7701 17.2302C14.6167 17.0769 14.4267 17.0002 14.2001 17.0002C13.9734 17.0002 13.7834 17.0769 13.6301 17.2302C13.4767 17.3835 13.4001 17.5735 13.4001 17.8002C13.4001 18.0269 13.4767 18.2169 13.6301 18.3702C13.7834 18.5235 13.9734 18.6002 14.2001 18.6002ZM10.6001 21.4002H13.4001V21.0002L14.2401 20.1602C13.6534 20.0802 13.1667 19.8169 12.7801 19.3702C12.3934 18.9235 12.2001 18.4002 12.2001 17.8002V12.6002C12.2001 11.5602 12.6967 10.9002 13.6901 10.6202C14.6834 10.3402 15.7867 10.2002 17.0001 10.2002C18.3334 10.2002 19.4667 10.3402 20.4001 10.6202C21.3334 10.9002 21.8001 11.5602 21.8001 12.6002V17.8002C21.8001 18.4002 21.6067 18.9235 21.2201 19.3702C20.8334 19.8169 20.3467 20.0802 19.7601 20.1602L20.6001 21.0002V21.4002H23.4001V12.4802C23.4001 11.6802 23.2034 10.9969 22.8101 10.4302C22.4167 9.86355 21.8267 9.42688 21.0401 9.12021C20.4534 8.89355 19.8034 8.75021 19.0901 8.69021C18.3767 8.63021 17.6801 8.60021 17.0001 8.60021C16.3201 8.60021 15.6234 8.63021 14.9101 8.69021C14.1967 8.75021 13.5467 8.89355 12.9601 9.12021C12.1734 9.42688 11.5834 9.86355 11.1901 10.4302C10.7967 10.9969 10.6001 11.6802 10.6001 12.4802V21.4002Z" fill="#352F36"/>
<defs>
<filter id="filter0_d_2117_27453" x="0.3" y="0.3" width="33.4" height="33.4" filterUnits="userSpaceOnUse" color-interpolation-filters="sRGB">
<feFlood flood-opacity="0" result="BackgroundImageFix"/>
<feColorMatrix in="SourceAlpha" type="matrix" values="0 0 0 0 0 0 0 0 0 0 0 0 0 0 0 0 0 0 127 0" result="hardAlpha"/>
<feMorphology radius="0.7" operator="dilate" in="SourceAlpha" result="effect1_dropShadow_2117_27453"/>
<feOffset dy="2"/>
<feGaussianBlur stdDeviation="2"/>
<feComposite in2="hardAlpha" operator="out"/>
<feColorMatrix type="matrix" values="0 0 0 0 0 0 0 0 0 0 0 0 0 0 0 0 0 0 0.25 0"/>
<feBlend mode="normal" in2="BackgroundImageFix" result="effect1_dropShadow_2117_27453"/>
<feBlend mode="normal" in="SourceGraphic" in2="effect1_dropShadow_2117_27453" result="shape"/>
</filter>
</defs>
</svg>
